<?xml version="1.0" standalone="no"?>
<!DOCTYPE svg PUBLIC "-//W3C//DTD SVG 20010904//EN"
 "http://www.w3.org/TR/2001/REC-SVG-20010904/DTD/svg10.dtd">
<svg version="1.0" xmlns="http://www.w3.org/2000/svg"
 width="680.000000pt" height="520.000000pt" viewBox="0 0 680.000000 520.000000"
 preserveAspectRatio="xMidYMid meet">

<g transform="translate(0.000000,520.000000) scale(0.100000,-0.100000)"
fill="#000000" stroke="none">
<path d="M3782 4356 c-4 -7 -16 -16 -26 -19 -17 -7 -18 -15 -13 -72 4 -39 2
-65 -3 -65 -6 0 -10 -9 -10 -20 0 -23 -4 -24 -31 -9 -16 8 -25 7 -38 -5 -29
-26 -57 -19 -80 19 -24 40 -41 45 -41 12 0 -29 25 -53 70 -68 39 -14 70 -38
70 -56 0 -6 5 -24 12 -40 6 -15 10 -33 9 -39 0 -6 6 -17 14 -24 9 -7 15 -29
15 -54 1 -43 14 -68 43 -79 9 -3 17 -11 17 -17 0 -6 4 -9 8 -6 12 7 27 -6 44
-41 15 -30 15 -32 -8 -52 -13 -12 -24 -28 -24 -36 0 -23 -35 -97 -58 -120 -10
-11 -18 -31 -17 -43 2 -26 -19 -47 -36 -36 -9 5 -10 2 -6 -11 4 -9 3 -23 -3
-30 -11 -13 -9 -49 3 -61 4 -4 7 -17 7 -28 0 -12 9 -32 19 -45 13 -17 16 -32
11 -60 -11 -63 11 -92 73 -92 9 0 17 -5 17 -10 0 -6 5 -7 10 -4 6 3 10 -1 10
-11 0 -11 6 -15 20 -11 11 3 20 1 20 -4 0 -9 62 28 93 56 10 9 26 14 34 11 13
-5 14 -4 3 9 -10 12 -10 15 3 15 8 0 18 6 20 13 4 9 8 8 16 -3 8 -12 11 -12
17 3 4 10 13 16 23 13 30 -10 147 267 139 331 -2 22 -14 34 -53 55 -49 27 -54
36 -40 71 6 14 2 20 -13 24 -12 3 -24 15 -28 27 -4 11 -16 27 -26 35 -11 7
-17 19 -14 27 3 8 1 14 -5 14 -5 0 -9 20 -8 45 3 46 0 52 -64 121 -27 30 -28
33 -17 77 11 41 10 47 -8 65 -11 11 -29 23 -41 27 -25 7 -45 41 -37 60 3 8 1
17 -4 20 -5 3 -8 26 -5 50 4 42 3 44 -36 63 -29 15 -41 17 -47 8z"/>
<path d="M3515 4161 c3 -11 1 -22 -5 -26 -8 -5 -8 -10 0 -20 17 -20 -4 -28
-51 -20 l-41 7 4 -33 c3 -30 0 -34 -22 -34 -18 0 -27 -8 -35 -30 -5 -16 -14
-33 -20 -37 -6 -5 -5 -12 3 -20 17 -17 15 -39 -8 -68 -11 -14 -20 -36 -20 -48
0 -15 -7 -26 -19 -29 -15 -4 -18 -13 -17 -51 1 -26 -6 -69 -16 -95 -16 -43
-17 -50 -3 -63 30 -30 14 -64 -31 -64 -52 0 -67 -31 -60 -127 2 -43 5 -95 5
-117 0 -27 6 -43 21 -53 24 -17 26 -46 4 -68 -14 -13 -15 -21 -5 -41 17 -38
13 -71 -11 -93 -15 -15 -22 -35 -24 -71 -4 -60 -11 -75 -28 -61 -10 8 -12 3
-8 -22 6 -53 10 -61 26 -48 20 17 28 -2 16 -35 -8 -19 -8 -30 0 -38 5 -5 10
-20 10 -33 0 -13 3 -23 8 -23 4 0 16 -16 26 -35 11 -19 23 -35 28 -35 4 0 8
-7 8 -15 0 -8 -4 -15 -10 -15 -5 0 -6 -7 -3 -17 5 -12 3 -14 -7 -8 -8 5 -4 -7
8 -27 12 -19 22 -45 22 -58 0 -20 3 -22 37 -15 50 9 55 13 43 35 -15 29 25 68
75 72 36 3 40 6 48 38 13 53 16 153 5 168 -8 9 -6 12 6 12 13 0 15 4 7 19 -6
10 -7 21 -3 25 3 4 0 11 -8 16 -12 8 -11 10 5 11 14 1 10 4 -10 9 -29 7 -29 8
-4 9 14 0 35 10 47 21 25 24 30 63 7 54 -8 -4 -15 -1 -15 5 0 6 -18 11 -42 11
-38 1 -41 2 -25 14 9 7 33 12 52 10 32 -2 34 -1 25 17 -8 15 -7 19 4 19 9 0
18 -11 22 -25 3 -14 8 -25 10 -25 3 0 17 13 33 28 l27 29 -45 44 c-25 24 -52
43 -59 41 -6 -2 -16 7 -21 20 -12 34 -22 118 -13 118 9 0 8 68 -2 77 -11 11
-7 23 9 23 13 0 17 6 14 26 0 4 5 10 12 15 7 4 14 16 15 25 2 10 10 24 18 30
9 6 16 15 16 21 0 5 18 22 40 39 23 17 40 37 40 50 0 11 7 29 14 40 13 17 13
21 -7 36 -19 15 -20 19 -8 42 10 19 11 29 3 39 -8 10 -6 16 10 26 17 11 18 15
7 22 -11 7 -11 9 4 9 9 0 17 7 17 16 0 14 2 15 17 3 13 -11 17 -11 20 -1 3 6
13 12 24 12 23 0 24 8 4 34 -8 11 -15 35 -15 53 0 19 -7 45 -16 58 -9 13 -13
29 -9 35 3 5 2 10 -3 10 -6 0 -13 15 -16 34 -7 39 -24 55 -89 86 -27 12 -51
29 -54 36 -8 22 -25 16 -18 -5z m-207 -1222 c4 -30 -32 -79 -58 -79 -10 0 -20
-7 -24 -15 -11 -29 -23 -14 -23 30 0 41 6 50 30 46 4 0 7 7 7 17 0 26 10 33
40 30 18 -2 26 -10 28 -29z m62 -54 c0 -8 -4 -23 -9 -33 -5 -9 -15 -30 -22
-47 l-13 -30 -4 32 c-2 17 4 46 13 62 16 33 35 41 35 16z"/>
<path d="M3994 3076 c-28 -12 -58 -29 -67 -38 -9 -9 -22 -19 -29 -22 -10 -5
-10 -7 0 -12 6 -3 12 -15 12 -27 1 -29 26 -61 42 -55 7 3 17 7 22 9 5 2 10 -4
12 -14 4 -27 11 -32 28 -18 16 14 63 5 87 -15 25 -22 76 -8 82 23 2 13 -1 30
-8 36 -22 23 -31 82 -19 130 l6 27 -58 -1 c-36 -1 -79 -10 -110 -23z"/>
<path d="M3546 2964 c-9 -24 -7 -28 9 -14 17 14 20 30 6 30 -5 0 -12 -7 -15
-16z"/>
<path d="M3840 2965 c0 -8 4 -15 9 -15 5 0 11 7 15 15 3 9 0 15 -9 15 -8 0
-15 -7 -15 -15z"/>
<path d="M3854 2930 c-21 -8 -39 -38 -30 -48 9 -8 56 28 56 43 0 8 -1 15 -2
14 -2 0 -12 -4 -24 -9z"/>
<path d="M4003 2881 c-19 -16 -20 -20 -7 -51 13 -29 12 -36 -1 -57 -19 -29
-65 -32 -72 -4 -2 10 -16 24 -29 30 -13 6 -24 15 -24 21 0 6 -13 2 -29 -9 -21
-15 -30 -31 -33 -58 -3 -21 -6 -42 -7 -48 -2 -5 -3 -27 -2 -48 l1 -39 31 26
c17 14 38 26 47 26 63 2 140 14 159 26 19 12 23 12 31 -3 6 -10 16 -14 26 -10
11 4 32 -3 53 -17 l36 -25 31 22 c37 26 44 35 52 64 6 23 -27 78 -40 66 -5 -5
-10 28 -7 49 2 15 -43 30 -74 24 -22 -5 -38 -2 -47 8 -23 23 -71 26 -95 7z"/>
<path d="M3607 2793 c-8 -16 -11 -39 -8 -51 6 -24 6 -24 24 -4 12 13 15 22 8
27 -8 4 -8 12 -1 25 13 23 13 30 0 30 -5 0 -16 -12 -23 -27z"/>
<path d="M3030 2710 c-14 -26 -12 -29 21 -32 20 -3 24 1 24 22 0 32 -30 39
-45 10z"/>
<path d="M4043 2687 c-5 -10 -35 -16 -93 -21 -125 -10 -157 -40 -123 -113 16
-35 22 -38 63 -41 53 -4 68 -14 72 -50 2 -16 12 -31 27 -38 13 -7 27 -17 31
-23 9 -15 70 -2 77 15 3 8 10 14 17 14 18 0 46 54 40 76 -3 12 1 26 10 33 9 8
16 20 16 27 0 8 5 14 12 14 9 0 9 3 1 11 -6 6 -9 17 -7 23 5 14 -72 62 -94 58
-9 -2 -21 4 -28 13 -10 14 -14 14 -21 2z"/>
<path d="M2973 2673 c9 -2 23 -2 30 0 6 3 -1 5 -18 5 -16 0 -22 -2 -12 -5z"/>
<path d="M3018 2662 c-11 -2 -18 -13 -18 -28 0 -23 -15 -34 -22 -15 -1 5 -16
-1 -33 -15 -26 -21 -28 -26 -17 -44 15 -24 16 -50 2 -50 -19 0 -10 -28 11 -33
17 -5 21 -12 17 -36 -4 -26 -1 -30 24 -33 16 -3 31 -1 34 4 3 4 0 8 -7 8 -8 0
-8 4 -1 13 6 7 9 23 5 35 -8 30 7 28 40 -8 40 -42 63 -38 46 8 -6 16 -16 23
-31 21 -13 -1 -32 2 -43 7 -19 8 -19 8 5 14 18 4 26 13 28 34 2 19 8 26 18 22
7 -3 18 3 24 14 9 17 7 20 -10 20 -15 0 -22 8 -26 29 -7 32 -18 40 -46 33z"/>
<path d="M3492 2630 c0 -14 2 -19 5 -12 2 6 2 18 0 25 -3 6 -5 1 -5 -13z"/>
<path d="M1770 2584 c0 -9 -9 -18 -20 -21 -19 -5 -19 -6 6 -19 31 -17 37 -17
29 -4 -3 6 3 10 15 10 14 0 20 5 18 18 -5 31 -48 46 -48 16z"/>
<path d="M3198 2525 c2 -14 0 -25 -7 -25 -5 0 -8 6 -5 14 9 22 -14 28 -33 9
-22 -22 -18 -64 8 -70 10 -3 19 -9 19 -14 0 -5 5 -9 11 -9 5 0 8 4 4 9 -3 5
-1 12 4 16 6 3 8 12 5 19 -3 8 -1 17 5 21 16 9 14 55 -3 55 -9 0 -12 -8 -8
-25z"/>
<path d="M1634 2515 c1 -8 5 -18 9 -21 15 -16 5 -32 -23 -37 -31 -7 -42 -27
-15 -27 9 0 18 -7 21 -15 4 -8 15 -15 25 -15 10 0 19 -4 19 -10 0 -5 -6 -10
-14 -10 -7 0 -21 -11 -30 -25 -16 -24 -16 -25 8 -25 14 0 28 -5 32 -11 4 -7
-5 -10 -27 -8 -58 4 -68 1 -62 -20 4 -14 -1 -20 -18 -23 -32 -4 -37 -28 -6
-28 19 0 24 -5 23 -22 -1 -18 5 -22 37 -23 25 -1 41 3 48 14 7 11 12 12 15 5
4 -9 14 -8 35 3 19 9 45 13 67 11 35 -5 39 -3 65 40 18 29 26 53 23 67 -3 12
-3 25 1 28 11 12 8 77 -3 77 -7 0 -15 12 -18 26 -7 25 -8 26 -21 8 -14 -18
-16 -18 -45 14 -33 35 -50 41 -50 16 0 -13 -3 -14 -15 -4 -8 6 -18 9 -24 6 -5
-3 -11 1 -15 9 -7 20 -45 20 -42 0z"/>
<path d="M3562 2405 c-23 -13 -50 -33 -60 -43 -9 -11 -37 -27 -62 -37 -76 -28
-83 -36 -69 -84 10 -33 9 -43 -2 -57 -11 -14 -10 -18 9 -33 17 -12 24 -31 29
-71 3 -30 12 -68 21 -85 8 -16 18 -37 22 -45 8 -17 71 -50 83 -43 13 8 28 -8
19 -20 -6 -8 -2 -18 9 -29 18 -17 19 -17 25 7 5 21 9 23 26 14 11 -6 26 -8 33
-5 7 2 15 -3 17 -12 3 -10 16 -18 32 -20 16 -1 38 -14 53 -32 24 -29 26 -30
44 -14 11 9 19 13 19 8 0 -5 9 -15 21 -22 18 -11 24 -11 39 3 12 11 26 14 39
10 12 -4 21 -2 21 4 0 13 77 15 82 2 2 -5 15 -13 30 -16 27 -7 27 -6 17 24 -9
26 -7 38 22 91 17 33 38 60 45 60 16 0 19 26 4 35 -6 4 -8 10 -5 15 3 4 -2 13
-10 20 -22 18 -45 70 -45 102 0 18 -5 28 -15 28 -28 0 -29 30 -2 58 l26 27
-37 82 c-40 88 -58 102 -109 82 -15 -6 -66 -13 -113 -16 -47 -2 -102 -7 -122
-10 -34 -5 -39 -2 -48 21 -12 32 -31 32 -88 1z"/>
<path d="M3140 2395 c7 -9 15 -13 17 -11 7 7 -7 26 -19 26 -6 0 -6 -6 2 -15z"/>
<path d="M2960 2391 c0 -6 4 -12 9 -16 6 -3 9 -23 8 -45 -2 -28 2 -42 13 -45
19 -7 55 -55 41 -55 -6 0 -16 9 -23 20 -8 12 -24 20 -40 20 -24 0 -28 -4 -28
-30 0 -36 -17 -39 -30 -6 -7 19 -15 24 -36 22 -29 -3 -57 -36 -30 -36 13 0 13
-5 0 -42 -8 -23 -20 -46 -27 -50 -9 -6 -9 -10 2 -17 22 -14 -7 -71 -40 -78
-23 -4 -26 -9 -23 -44 1 -21 -1 -41 -5 -43 -11 -7 -7 -37 7 -63 10 -19 10 -27
-3 -47 -15 -23 -15 -25 6 -40 17 -11 19 -18 11 -28 -14 -17 5 -43 38 -52 14
-4 34 -11 45 -16 11 -4 28 -11 38 -14 18 -6 17 -7 -2 -32 -12 -15 -21 -35 -21
-45 0 -10 -4 -20 -8 -23 -5 -3 -9 -21 -10 -41 -1 -34 0 -36 26 -33 15 2 32 10
39 18 9 12 14 13 24 3 7 -7 23 -13 35 -13 13 0 25 -4 29 -10 3 -5 12 -7 19 -4
7 3 20 -2 29 -10 20 -20 27 -20 27 -1 0 17 31 20 47 4 11 -11 75 4 97 22 5 5
22 5 37 2 31 -6 38 8 19 37 -6 10 0 23 24 46 17 17 38 33 46 36 15 5 5 16 -69
78 -31 25 -41 40 -38 56 2 13 -3 26 -15 33 -10 6 -18 18 -18 27 0 9 5 12 11 8
6 -3 14 -1 18 5 4 6 18 14 31 16 13 2 26 8 29 13 3 5 23 17 44 27 20 9 37 24
37 33 0 13 3 13 19 -2 17 -15 19 -15 25 -1 10 26 7 44 -10 70 -9 13 -18 48
-19 76 -4 48 -12 62 -40 72 -6 2 -5 14 3 31 15 33 6 73 -19 87 -11 5 -19 16
-19 24 0 8 -7 15 -15 15 -8 0 -20 9 -27 20 -16 25 -40 26 -63 0 -10 -11 -21
-17 -26 -15 -4 3 -14 -4 -22 -15 -11 -16 -21 -19 -41 -14 -30 7 -32 11 -10 35
15 17 14 18 -25 14 -39 -3 -42 -2 -47 25 -5 21 -13 29 -36 34 -41 8 -48 8 -48
-3z"/>
<path d="M3282 2351 c4 -13 18 -16 19 -4 0 4 -5 9 -11 12 -7 2 -11 -2 -8 -8z"/>
<path d="M1540 2290 c0 -6 7 -10 15 -10 8 0 15 2 15 4 0 2 -7 6 -15 10 -8 3
-15 1 -15 -4z"/>
<path d="M2740 2217 c-27 -13 -37 -47 -14 -47 29 0 -14 -59 -43 -60 -9 0 -10
7 -4 23 10 27 -1 53 -18 43 -6 -4 -11 -17 -11 -29 0 -12 -13 -42 -29 -66 -24
-35 -27 -47 -18 -62 6 -9 19 -16 29 -14 11 2 28 -5 38 -15 11 -11 26 -20 33
-20 7 0 18 -5 24 -11 17 -17 29 36 14 55 -14 16 1 30 31 31 10 0 18 5 19 10 1
6 9 15 17 21 12 9 12 14 1 34 -12 18 -12 23 -1 27 7 3 17 16 23 29 19 52 -31
80 -91 51z"/>
<path d="M2550 2016 c0 -2 7 -7 16 -10 8 -3 12 -2 9 4 -6 10 -25 14 -25 6z"/>
<path d="M2502 1977 c-27 -12 -27 -54 0 -49 9 1 19 -6 23 -17 3 -10 21 -26 39
-35 26 -12 33 -21 29 -36 -6 -21 20 -29 32 -10 9 15 25 12 19 -4 -5 -14 42
-66 59 -66 5 0 6 11 3 25 -5 19 0 29 23 46 25 18 27 24 17 45 -6 13 -17 24
-25 24 -9 0 -12 9 -9 30 4 24 1 30 -14 30 -10 0 -21 6 -24 13 -3 9 -21 13 -48
13 -24 -1 -42 -4 -39 -8 6 -10 -10 -10 -39 1 -14 5 -32 4 -46 -2z"/>
<path d="M2406 1944 c-9 -8 -16 -32 -16 -53 0 -36 -2 -38 -42 -50 -75 -23 -90
-31 -84 -46 8 -21 -29 -28 -71 -13 -40 14 -55 27 -47 40 3 4 -4 8 -15 8 -23 0
-36 -16 -20 -25 5 -4 9 -22 7 -40 -1 -19 1 -37 5 -41 14 -14 6 -19 -33 -20
-22 -1 -40 3 -40 8 0 6 -8 7 -17 4 -11 -5 -24 2 -39 20 -15 17 -27 23 -36 18
-7 -5 -33 -9 -57 -9 -25 0 -46 -5 -48 -12 -3 -7 4 -9 19 -5 21 5 22 4 8 -13
-8 -11 -10 -16 -3 -11 9 5 11 2 7 -8 -3 -9 -11 -13 -16 -10 -6 4 -9 1 -6 -7 3
-8 11 -14 19 -14 8 0 23 -8 34 -18 10 -10 25 -15 33 -12 7 2 15 -2 18 -10 4
-8 13 -15 21 -15 8 0 11 -4 8 -10 -3 -5 1 -10 9 -10 9 0 16 -8 16 -19 0 -10 7
-24 15 -31 11 -9 12 -16 5 -25 -13 -16 8 -61 38 -76 12 -7 22 -19 23 -28 1 -9
2 -30 3 -48 1 -18 5 -35 9 -39 4 -4 7 -17 7 -29 0 -11 5 -26 11 -32 7 -7 7
-13 0 -17 -6 -4 -15 11 -21 35 -14 51 -32 40 -34 -20 0 -23 -3 -41 -7 -41 -3
0 -11 -24 -18 -54 -6 -29 -18 -62 -25 -72 -12 -16 -11 -22 6 -46 10 -16 26
-28 34 -28 8 0 17 -7 20 -15 4 -8 14 -15 24 -15 11 0 21 -4 25 -9 3 -5 24 -8
46 -7 23 2 54 -3 68 -10 14 -8 32 -14 39 -14 6 0 12 -7 12 -15 0 -17 60 -36
90 -28 13 4 20 14 20 30 0 29 17 63 31 63 6 0 22 9 36 20 20 15 29 17 45 9 11
-6 28 -9 39 -6 10 3 20 0 23 -7 3 -7 8 -6 15 3 8 12 12 10 22 -11 11 -25 61
-45 96 -39 15 2 73 59 73 72 0 5 9 9 19 9 10 0 22 7 25 16 9 22 8 24 -9 17 -9
-3 -25 3 -36 13 -16 14 -19 26 -14 50 4 23 1 33 -10 38 -21 8 -19 36 3 36 26
0 34 11 21 27 -10 12 -15 38 -18 101 -1 17 -6 22 -18 20 -10 -2 -18 -10 -18
-18 0 -8 -8 -16 -18 -18 -15 -3 -17 1 -11 25 4 15 13 35 20 44 8 8 14 20 14
26 0 6 7 14 15 17 9 3 21 19 27 36 8 23 15 29 28 25 22 -7 31 6 32 45 1 17 5
33 10 36 4 3 8 15 8 26 0 12 9 32 20 44 l21 21 -33 8 c-47 12 -51 13 -70 14
-9 0 -19 9 -23 20 -4 12 -19 21 -46 25 -43 7 -102 43 -93 58 3 4 -9 8 -27 8
-28 0 -31 3 -27 25 4 19 1 25 -13 25 -11 0 -19 5 -19 10 0 6 -6 10 -14 10 -8
0 -16 8 -18 17 -2 10 -12 18 -23 18 -13 0 -21 8 -23 23 -4 27 -42 30 -66 6z"/>
<path d="M2720 1924 c0 -8 5 -12 10 -9 6 4 8 11 5 16 -9 14 -15 11 -15 -7z"/>
<path d="M3434 1922 c-10 -14 -13 -15 -28 -3 -10 9 -16 10 -16 2 0 -6 -5 -11
-11 -11 -6 0 -31 -14 -56 -30 -24 -17 -48 -28 -53 -25 -14 8 -33 -24 -25 -42
5 -10 7 -24 6 -30 -3 -20 18 -53 34 -53 8 0 15 -4 15 -9 0 -17 92 -80 108 -73
22 8 42 28 42 41 0 14 36 14 63 -1 25 -13 97 -12 111 2 6 6 20 10 32 10 15 0
27 11 38 35 9 19 26 39 36 45 18 10 19 12 3 30 -10 11 -28 20 -41 20 -13 0
-35 9 -49 20 -26 20 -49 27 -39 12 2 -4 -3 -13 -13 -19 -15 -10 -23 -7 -42 13
-20 21 -21 27 -9 35 13 9 12 10 -2 5 -16 -5 -77 19 -88 35 -3 5 -10 0 -16 -9z"/>
<path d="M2718 1809 c-8 -23 4 -59 18 -59 24 0 27 28 6 50 -14 15 -21 18 -24
9z"/>
<path d="M3940 1789 c0 -6 -13 -8 -30 -5 -21 3 -33 -1 -39 -12 -11 -19 -41
-25 -41 -7 0 18 -32 29 -41 14 -4 -7 -15 -9 -24 -5 -17 6 -55 -18 -55 -35 0
-19 -36 -49 -57 -49 -22 0 -43 -31 -43 -61 0 -15 78 -59 104 -59 35 0 56 10
56 26 0 7 11 16 25 20 14 3 25 10 25 15 0 5 10 9 23 9 28 0 41 9 55 36 12 23
79 39 97 23 17 -17 31 -9 43 24 16 45 16 43 -20 61 -36 18 -78 21 -78 5z"/>
<path d="M4389 1735 c-1 -3 -2 -8 -3 -12 -3 -19 -19 -33 -35 -33 -10 0 -30 -9
-45 -21 -17 -14 -33 -18 -44 -13 -9 4 -20 7 -24 6 -4 -1 -29 -2 -57 -3 -39 -2
-56 -8 -72 -26 -13 -12 -28 -23 -34 -23 -12 0 -29 -40 -59 -141 -14 -48 -20
-57 -51 -69 l-36 -14 25 -15 c14 -8 26 -24 28 -36 2 -13 15 -24 37 -31 19 -6
36 -19 37 -28 5 -34 13 -43 39 -48 22 -5 26 -2 22 13 -6 22 -6 22 28 7 25 -11
34 -28 14 -28 -17 0 1 -21 28 -31 22 -8 23 -11 12 -26 -13 -15 -11 -16 11 -10
14 3 69 9 123 12 92 7 98 9 118 36 11 16 35 37 52 45 33 18 125 26 133 12 3
-4 15 -8 27 -8 21 0 22 4 21 80 -1 44 2 80 7 80 5 0 9 -4 9 -10 0 -13 27 -13
35 1 10 15 -4 59 -18 59 -7 0 -23 -9 -35 -20 -49 -46 -87 -14 -101 84 -10 67
-10 68 -86 142 -66 64 -102 87 -106 69z"/>
<path d="M3966 1691 c-3 -4 -16 -6 -28 -4 -17 3 -27 -3 -40 -27 -12 -21 -25
-30 -43 -30 -14 0 -25 -4 -25 -10 0 -5 -9 -10 -21 -10 -12 0 -23 -8 -26 -19
-8 -33 -83 -42 -121 -15 -21 14 -22 14 -22 -10 0 -16 -6 -26 -15 -26 -8 0 -15
-7 -15 -15 0 -8 -5 -15 -11 -15 -6 0 -8 -9 -4 -20 4 -12 1 -27 -5 -35 -10 -12
-4 -24 36 -63 27 -27 65 -54 84 -60 l35 -11 -35 6 c-19 3 -50 19 -68 35 -19
16 -37 28 -40 26 -4 -2 -20 -10 -35 -18 -22 -11 -28 -19 -24 -38 3 -16 -1 -26
-12 -30 -9 -4 -16 -16 -16 -27 0 -14 -7 -20 -27 -22 -15 -1 -30 3 -34 8 -4 6
-11 6 -20 -2 -8 -6 -26 -9 -40 -6 -34 6 -41 -15 -18 -50 l18 -28 13 33 c7 17
19 32 26 32 23 -1 47 -27 47 -53 0 -17 11 -35 33 -52 17 -15 24 -25 15 -21
-29 9 -21 -8 22 -47 23 -20 47 -34 54 -31 15 6 65 -15 106 -42 14 -10 -6 14
-45 52 -38 39 -76 82 -82 97 -7 15 -17 27 -23 27 -5 0 -10 16 -10 35 0 35 20
49 36 23 5 -8 10 -7 18 3 8 11 37 15 109 16 83 1 99 -1 105 -15 5 -14 7 -12
12 8 4 15 1 30 -7 38 -7 7 -13 22 -13 32 0 10 -4 22 -10 25 -5 3 -10 1 -10 -4
0 -6 -10 -11 -22 -10 -22 0 -22 1 -3 9 12 4 27 15 34 24 7 9 19 16 26 16 7 0
18 6 24 13 6 8 32 15 58 16 26 1 49 5 53 9 3 5 12 11 20 14 8 3 21 27 29 54
27 100 44 136 68 145 20 7 35 42 16 37 -5 -1 -19 4 -32 11 -12 7 -32 10 -43 8
-11 -3 -21 0 -25 9 -6 16 -19 18 -27 5z"/>
<path d="M3452 1663 c-15 -19 -32 -27 -59 -29 -21 -1 -44 -2 -50 -3 -7 -1 -13
-8 -13 -16 0 -9 -11 -20 -25 -25 -25 -9 -25 -11 -10 -39 14 -28 20 -61 11 -61
-2 0 -16 7 -32 15 -19 9 -32 11 -38 5 -6 -6 -20 -10 -32 -10 -13 0 -26 -4 -29
-10 -3 -5 -17 -10 -31 -10 -13 0 -24 5 -24 10 0 6 -7 10 -15 10 -8 0 -15 -6
-15 -14 0 -20 -30 -29 -36 -11 -9 23 -34 18 -34 -6 0 -29 30 -51 48 -36 9 7
16 7 20 0 12 -17 36 -21 52 -8 18 15 104 30 96 17 -13 -21 34 -43 118 -54 75
-9 88 -9 99 4 7 9 29 18 49 21 41 6 91 52 83 76 -3 7 0 20 6 27 8 10 8 14 0
14 -6 0 -11 5 -11 10 0 6 11 10 25 10 29 0 33 24 9 58 -9 13 -13 31 -9 43 7
20 4 21 -21 16 -16 -3 -44 1 -63 9 -44 18 -44 18 -69 -13z"/>
<path d="M3143 1414 c-4 -11 -13 -14 -29 -10 -20 5 -24 2 -24 -15 0 -14 -5
-19 -13 -16 -10 4 -13 -2 -9 -19 4 -24 -11 -33 -23 -14 -4 6 -11 8 -16 4 -5
-3 -16 -1 -23 5 -11 9 -15 6 -21 -11 -9 -26 -12 -39 -14 -53 0 -5 -17 8 -36
29 -19 22 -36 38 -37 35 -2 -2 -8 -13 -14 -24 -8 -15 -23 -21 -58 -23 -51 -3
-53 -7 -30 -40 15 -21 15 -25 -1 -42 -10 -11 -23 -17 -29 -13 -6 4 -3 -3 7
-14 12 -14 16 -29 11 -47 -8 -32 11 -58 40 -54 16 2 20 -2 19 -19 -4 -33 18
-28 50 12 30 38 49 42 87 20 14 -7 39 -20 56 -28 26 -12 35 -26 50 -73 10 -33
31 -72 46 -89 15 -16 28 -33 28 -37 0 -5 5 -8 12 -8 12 0 28 -14 90 -77 17
-18 37 -33 45 -33 7 0 16 -6 19 -13 3 -8 17 -11 38 -9 26 3 37 -1 53 -22 12
-14 26 -26 31 -26 6 0 15 -6 19 -12 4 -7 17 -13 28 -13 12 0 21 -8 24 -20 4
-24 31 -46 48 -40 15 5 43 -21 43 -40 0 -8 11 -35 25 -61 25 -48 25 -64 -1
-64 -11 0 -13 -6 -9 -19 3 -11 -1 -26 -11 -35 -13 -13 -14 -19 -4 -31 14 -17
40 -3 40 22 0 7 7 16 15 19 9 4 15 19 15 36 0 23 6 31 30 39 17 6 30 16 30 23
0 21 -31 56 -49 56 -26 0 -31 20 -16 64 19 54 29 62 60 48 14 -7 35 -12 46
-12 12 0 23 -10 29 -25 12 -31 26 -32 35 -4 5 16 0 27 -21 45 -37 30 -118 69
-170 83 -49 13 -73 36 -56 53 22 22 12 27 -36 21 -44 -5 -51 -2 -99 36 -43 33
-55 50 -70 97 -9 31 -24 59 -33 62 -8 3 -30 16 -47 29 -26 19 -33 21 -33 9 0
-9 -7 -16 -15 -16 -8 0 -15 7 -15 15 0 8 5 15 11 15 8 0 8 4 2 13 -17 21 -24
68 -13 82 8 10 8 19 1 34 -18 33 -13 46 24 60 19 7 35 17 35 22 0 5 11 9 25 9
14 0 25 5 25 10 0 6 -5 10 -11 10 -8 0 -8 4 0 14 9 11 8 15 -5 20 -12 5 -14 9
-5 20 9 11 3 15 -33 20 -24 4 -54 16 -67 26 -27 24 -87 27 -96 4z m158 -599
c-1 -15 -24 -12 -29 3 -3 9 2 13 12 10 10 -1 17 -7 17 -13z"/>
<path d="M3560 1421 c0 -5 -19 -12 -42 -16 -24 -4 -51 -14 -60 -22 -9 -8 -31
-14 -50 -12 -41 2 -75 -10 -57 -22 7 -4 14 -18 16 -31 2 -13 8 -24 13 -26 6
-2 10 -10 10 -18 0 -16 36 -19 45 -4 4 6 12 7 18 3 6 -4 21 -8 33 -9 17 -2 21
2 17 17 -4 14 0 22 15 25 14 4 18 12 15 25 -4 14 5 29 27 49 18 16 29 33 25
39 -8 13 -25 14 -25 2z"/>
<path d="M4520 1243 c-19 -7 -47 -29 -62 -48 -27 -33 -30 -33 -135 -41 -145
-12 -139 -12 -135 11 3 19 2 19 -14 3 -24 -23 -11 -64 26 -83 17 -9 30 -17 30
-20 0 -16 -25 -55 -36 -55 -19 0 6 -61 34 -83 14 -12 22 -29 22 -48 0 -16 1
-29 3 -29 8 1 76 28 95 38 16 10 36 10 74 3 41 -7 58 -6 84 7 27 13 31 18 23
33 -7 14 -5 21 11 31 11 7 20 17 20 23 0 15 57 37 79 30 11 -3 22 -2 25 4 10
16 -5 41 -25 41 -19 0 -19 1 -2 26 11 17 16 41 14 66 -2 33 1 40 18 45 37 9
26 40 -16 47 -89 13 -101 13 -133 -1z"/>
<path d="M1415 1208 c-22 -9 -47 -18 -56 -18 -9 0 -22 -7 -29 -16 -11 -13 -10
-16 8 -21 17 -4 21 -13 20 -44 0 -21 -4 -39 -9 -39 -5 0 -9 -6 -9 -13 0 -9 10
-12 32 -9 27 4 30 2 26 -14 -3 -13 0 -20 11 -22 9 -1 37 -4 64 -6 56 -6 70
-13 63 -32 -3 -8 1 -17 9 -20 20 -8 19 -33 -2 -41 -37 -13 -58 -39 -61 -73 -2
-19 -10 -40 -19 -47 -8 -6 -12 -16 -9 -22 4 -6 2 -20 -4 -32 -9 -15 -18 -19
-35 -15 -20 5 -22 3 -18 -17 2 -12 10 -32 16 -45 9 -18 7 -26 -11 -43 -26 -24
-28 -54 -4 -69 11 -8 13 -13 5 -16 -31 -13 -63 -48 -63 -68 0 -16 10 -27 34
-39 19 -9 37 -25 41 -36 4 -13 12 -18 23 -15 15 5 15 4 -1 -9 -12 -10 -15 -17
-7 -22 6 -4 9 -13 6 -21 -3 -7 5 -26 19 -41 l23 -28 31 23 c16 12 43 22 59 22
15 0 33 5 39 11 8 8 33 7 89 -4 44 -8 88 -15 99 -15 11 1 27 -2 35 -6 11 -4
21 3 33 24 22 36 70 63 97 55 16 -5 20 -2 20 14 0 12 5 21 10 21 6 0 10 5 10
11 0 15 44 56 70 64 23 7 26 21 6 28 -8 3 -17 19 -21 36 -8 38 16 81 78 138
24 22 42 44 40 49 -5 15 34 34 85 41 26 3 54 11 62 17 8 7 34 21 58 31 27 11
42 24 42 36 0 9 3 24 6 32 4 12 -5 15 -45 14 -52 -1 -89 13 -128 49 -19 17
-32 20 -73 16 -33 -3 -50 -1 -50 7 0 6 -9 11 -20 11 -10 0 -23 6 -27 13 -4 7
-23 19 -40 26 -18 7 -30 18 -27 23 9 14 -16 28 -52 28 -16 0 -39 6 -49 14 -10
7 -26 11 -35 9 -9 -3 -24 3 -33 12 -12 11 -26 14 -49 10 -25 -4 -49 2 -98 26
-41 20 -85 33 -120 36 -41 3 -60 10 -73 25 -23 28 -42 29 -92 6z"/>
<path d="M1341 1031 c-7 -5 -10 -14 -7 -20 4 -6 3 -11 -3 -11 -6 0 -10 -23 -9
-56 1 -30 -3 -59 -9 -62 -6 -4 -21 -28 -33 -54 -12 -26 -33 -59 -46 -73 -40
-43 -56 -82 -44 -105 6 -11 19 -20 30 -20 26 0 34 -17 16 -36 -9 -8 -16 -27
-16 -40 0 -14 -7 -40 -14 -59 -13 -31 -13 -35 0 -35 9 0 28 -7 44 -16 35 -22
80 -12 80 17 0 26 29 69 46 69 12 0 12 4 0 29 -15 27 -14 30 10 56 21 23 24
32 16 49 -6 12 -13 34 -17 49 -6 28 -5 29 25 22 21 -5 30 -3 31 7 1 7 3 20 4
28 1 8 9 32 18 52 9 20 14 43 12 50 -4 9 10 23 36 37 30 17 38 26 28 32 -8 5
-14 16 -14 26 0 10 -7 19 -15 20 -8 1 -41 5 -73 8 -52 6 -58 9 -54 26 6 21
-17 26 -42 10z"/>
<path d="M4540 930 c9 -17 5 -22 -27 -39 -38 -19 -80 -21 -117 -6 -17 7 -35 1
-108 -36 -10 -5 -24 -9 -32 -9 -8 0 -16 -7 -20 -15 -3 -8 -17 -15 -30 -15 -14
0 -33 -9 -43 -19 -10 -11 -31 -24 -46 -30 -17 -7 -27 -18 -27 -30 0 -11 -4
-23 -10 -26 -5 -3 -10 -15 -10 -26 0 -11 -7 -22 -15 -25 -8 -4 -15 -15 -15
-25 0 -11 -7 -22 -15 -26 -12 -4 -8 -13 22 -39 20 -18 40 -30 43 -25 3 5 14 5
25 1 20 -8 20 -8 -2 -16 l-21 -9 22 -26 c23 -26 38 -29 86 -16 49 13 80 15 85
6 4 -5 17 -9 31 -9 13 0 24 -4 24 -10 0 -5 -5 -10 -12 -10 -6 0 -9 -3 -6 -6 4
-3 16 -1 27 5 16 9 26 8 44 -4 23 -15 23 -14 19 15 -3 20 -10 30 -21 30 -9 0
-22 5 -29 12 -7 7 -12 9 -12 4 0 -4 -10 0 -22 8 -12 9 -36 16 -53 16 l-30 1
30 16 c17 9 25 18 18 20 -7 3 -13 14 -13 25 0 15 5 18 16 14 9 -4 -2 13 -25
36 -44 46 -53 85 -26 108 12 10 15 10 15 -3 0 -18 39 -27 69 -15 18 6 20 11
11 28 -13 24 -5 41 15 34 7 -3 18 4 25 16 7 14 17 19 27 16 9 -4 24 1 34 10
10 9 25 14 35 10 9 -4 32 -3 51 0 28 5 34 10 30 25 -3 11 2 26 10 34 12 12 13
19 3 30 -7 8 -19 15 -27 15 -11 0 -11 -4 -3 -20z"/>
<path d="M2942 885 c-12 -9 -19 -21 -16 -27 4 -5 8 -26 9 -47 1 -20 3 -39 4
-43 0 -5 10 -8 21 -8 22 0 33 30 34 95 1 45 -16 55 -52 30z"/>
<path d="M2941 694 c-19 -14 -41 -22 -48 -20 -17 7 -16 -4 2 -41 14 -28 14
-85 0 -133 -5 -19 31 -64 45 -55 5 3 10 15 10 26 0 22 4 23 30 9 23 -12 29 3
32 80 1 30 6 60 10 67 6 7 3 21 -7 37 -9 14 -14 29 -11 35 5 7 -19 24 -27 20
-1 0 -18 -12 -36 -25z"/>
<path d="M2460 596 c0 -2 9 -6 20 -9 11 -3 18 -1 14 4 -5 9 -34 13 -34 5z"/>
<path d="M2348 579 c-16 -9 -16 -12 10 -34 l27 -24 19 22 c16 20 17 22 2 25
-9 2 -16 8 -16 13 0 12 -20 11 -42 -2z"/>
<path d="M4320 563 c0 -12 63 -46 88 -47 34 -2 21 17 -19 27 -19 5 -38 13 -43
18 -12 11 -26 12 -26 2z"/>
<path d="M4445 480 c3 -5 10 -10 16 -10 5 0 9 5 9 10 0 6 -7 10 -16 10 -8 0
-12 -4 -9 -10z"/>
<path d="M4190 445 c-7 -8 -16 -13 -20 -10 -4 3 -10 -5 -14 -18 -4 -16 2 -28
25 -45 21 -17 28 -30 24 -43 -4 -10 1 -29 9 -41 l16 -22 0 22 c0 26 25 29 39
5 8 -15 13 -16 29 -6 13 8 23 8 30 1 6 -6 12 -6 16 0 3 5 -8 28 -24 51 -17 22
-30 44 -30 47 0 3 19 3 43 0 23 -3 35 -3 27 1 -8 3 -20 14 -27 23 -6 9 -31 22
-55 29 -24 7 -50 14 -59 17 -9 2 -22 -2 -29 -11z"/>
<path d="M5427 395 c-15 -14 -39 -25 -52 -25 -18 0 -23 -4 -19 -15 4 -8 2 -15
-3 -15 -6 0 -20 -8 -32 -19 -17 -15 -19 -20 -8 -30 15 -12 67 -11 67 1 0 5 11
14 25 20 14 6 25 17 25 25 0 7 5 13 11 13 6 0 8 7 5 16 -3 8 -1 24 4 35 14 24
11 24 -23 -6z"/>
<path d="M3570 370 c-8 -5 -27 -10 -42 -10 -15 0 -29 -4 -32 -9 -11 -18 -88
-20 -114 -3 -22 15 -25 14 -34 -2 -7 -13 -13 -14 -22 -6 -20 16 -44 -16 -29
-38 6 -10 16 -16 22 -14 7 1 32 -9 57 -23 24 -14 54 -25 64 -25 11 0 30 -10
42 -22 45 -45 97 -16 75 41 -8 21 -5 37 11 74 11 26 20 47 19 47 -1 0 -9 -5
-17 -10z"/>
<path d="M1485 220 c3 -5 8 -10 11 -10 2 0 4 5 4 10 0 6 -5 10 -11 10 -5 0 -7
-4 -4 -10z"/>
<path d="M4430 151 c0 -19 6 -21 53 -21 29 0 58 -5 63 -10 14 -14 104 17 98
34 -3 8 -21 10 -67 4 -88 -11 -109 -10 -134 5 -9 6 -13 2 -13 -12z"/>
<path d="M4670 160 c-8 -5 -12 -11 -9 -14 3 -3 14 1 25 9 21 16 8 20 -16 5z"/>
<path d="M3475 70 c-3 -5 3 -10 14 -10 12 0 21 5 21 10 0 6 -6 10 -14 10 -8 0
-18 -4 -21 -10z"/>
</g>
</svg>
